<svg width="136" height="136" viewBox="0 0 136 136" fill="none" xmlns="http://www.w3.org/2000/svg">
<path d="M52.9844 122.936C43.4897 120.11 35.0381 114.861 28.346 107.908C30.8425 104.949 32.347 101.126 32.347 96.9514C32.347 87.5626 24.7359 79.9514 15.347 79.9514C14.7791 79.9514 14.2176 79.9794 13.664 80.0338C12.9097 76.3463 12.5137 72.5286 12.5137 68.6181C12.5137 62.6947 13.4225 56.9835 15.1084 51.6164C15.1878 51.6175 15.2673 51.6181 15.347 51.6181C24.7359 51.6181 32.347 44.0069 32.347 34.6181C32.347 31.9227 31.7197 29.3741 30.6034 27.1097C37.1566 21.0164 45.1551 16.4562 54.028 14C56.8395 19.511 62.5693 23.2848 69.1803 23.2848C75.7914 23.2848 81.5212 19.511 84.3327 14C93.2056 16.4562 101.204 21.0164 107.757 27.1097C106.641 29.3741 106.014 31.9227 106.014 34.6181C106.014 44.0069 113.625 51.6181 123.014 51.6181C123.093 51.6181 123.173 51.6175 123.252 51.6164C124.938 56.9835 125.847 62.6947 125.847 68.6181C125.847 72.5286 125.451 76.3463 124.697 80.0338C124.143 79.9794 123.582 79.9514 123.014 79.9514C113.625 79.9514 106.014 87.5626 106.014 96.9514C106.014 101.126 107.518 104.949 110.015 107.908C103.323 114.861 94.871 120.11 85.3762 122.936C83.1849 116.082 76.7623 111.118 69.1803 111.118C61.5983 111.118 55.1757 116.082 52.9844 122.936Z" stroke="#5AB5B0" stroke-width="5.66667" stroke-linejoin="round"/>
<path d="M67.9998 87.8327C78.9535 87.8327 87.8332 78.953 87.8332 67.9994C87.8332 57.0457 78.9535 48.166 67.9998 48.166C57.0462 48.166 48.1665 57.0457 48.1665 67.9994C48.1665 78.953 57.0462 87.8327 67.9998 87.8327Z" stroke="#5AB5B0" stroke-width="5.66667" stroke-linejoin="round"/>
</svg>
